<svg width="117" height="25" viewBox="0 0 117 25" fill="none" xmlns="http://www.w3.org/2000/svg">
<path d="M13.064 8.728L5.456 11.704V11.752L13.064 14.728V17.992L0.92 13.24V10.216L13.064 5.464V8.728ZM32.4618 13.888C32.1898 13.888 31.8458 13.904 31.4298 13.936C31.0298 13.952 30.6378 14.016 30.2538 14.128C29.8858 14.24 29.5658 14.408 29.2938 14.632C29.0378 14.856 28.9098 15.168 28.9098 15.568C28.9098 16 29.0938 16.32 29.4618 16.528C29.8298 16.736 30.2138 16.84 30.6138 16.84C30.9658 16.84 31.3018 16.792 31.6218 16.696C31.9578 16.6 32.2538 16.464 32.5098 16.288C32.7658 16.112 32.9658 15.888 33.1098 15.616C33.2698 15.344 33.3498 15.024 33.3498 14.656V13.888H32.4618ZM33.3498 17.536H33.3018C32.9018 18.16 32.3658 18.608 31.6938 18.88C31.0378 19.152 30.3418 19.288 29.6058 19.288C29.0618 19.288 28.5338 19.208 28.0218 19.048C27.5258 18.904 27.0858 18.68 26.7018 18.376C26.3178 18.072 26.0138 17.696 25.7898 17.248C25.5658 16.8 25.4538 16.28 25.4538 15.688C25.4538 15.016 25.5738 14.448 25.8138 13.984C26.0698 13.52 26.4058 13.136 26.8218 12.832C27.2538 12.528 27.7418 12.296 28.2858 12.136C28.8298 11.96 29.3898 11.832 29.9658 11.752C30.5578 11.672 31.1418 11.624 31.7178 11.608C32.3098 11.592 32.8538 11.584 33.3498 11.584C33.3498 10.944 33.1178 10.44 32.6538 10.072C32.2058 9.688 31.6698 9.496 31.0458 9.496C30.4538 9.496 29.9098 9.624 29.4138 9.88C28.9338 10.12 28.5018 10.456 28.1178 10.888L26.1978 8.92C26.8698 8.296 27.6538 7.832 28.5498 7.528C29.4458 7.208 30.3738 7.048 31.3338 7.048C32.3898 7.048 33.2538 7.184 33.9258 7.456C34.6138 7.712 35.1578 8.096 35.5578 8.608C35.9738 9.12 36.2618 9.752 36.4218 10.504C36.5818 11.24 36.6618 12.096 36.6618 13.072V19H33.3498V17.536ZM40.1684 10.216H37.7924V7.336H40.1684V5.272C40.1684 4.632 40.2244 4.032 40.3364 3.472C40.4484 2.896 40.6644 2.392 40.9844 1.96C41.3044 1.528 41.7604 1.192 42.3524 0.951999C42.9604 0.696 43.7524 0.568 44.7284 0.568C45.0964 0.568 45.4564 0.584 45.8084 0.615999C46.1604 0.647999 46.5044 0.703999 46.8404 0.783998L46.6724 3.832C46.4644 3.752 46.2724 3.696 46.0964 3.664C45.9204 3.616 45.7204 3.592 45.4964 3.592C44.9204 3.592 44.4884 3.72 44.2004 3.976C43.9124 4.216 43.7684 4.72 43.7684 5.488V7.336H46.4324V10.216H43.7684V19H40.1684V10.216ZM47.8033 7.336H51.4033V9.208H51.4513C51.8353 8.488 52.2913 7.952 52.8193 7.6C53.3473 7.232 54.0113 7.048 54.8113 7.048C55.0193 7.048 55.2273 7.056 55.4353 7.072C55.6433 7.088 55.8353 7.12 56.0113 7.168V10.456C55.7553 10.376 55.4993 10.32 55.2433 10.288C55.0033 10.24 54.7473 10.216 54.4753 10.216C53.7873 10.216 53.2433 10.312 52.8433 10.504C52.4433 10.696 52.1313 10.968 51.9073 11.32C51.6993 11.656 51.5633 12.064 51.4993 12.544C51.4353 13.024 51.4033 13.552 51.4033 14.128V19H47.8033V7.336ZM64.0087 13.888C63.7367 13.888 63.3927 13.904 62.9767 13.936C62.5767 13.952 62.1847 14.016 61.8007 14.128C61.4327 14.24 61.1127 14.408 60.8407 14.632C60.5847 14.856 60.4567 15.168 60.4567 15.568C60.4567 16 60.6407 16.32 61.0087 16.528C61.3767 16.736 61.7607 16.84 62.1607 16.84C62.5127 16.84 62.8487 16.792 63.1687 16.696C63.5047 16.6 63.8007 16.464 64.0567 16.288C64.3127 16.112 64.5127 15.888 64.6567 15.616C64.8167 15.344 64.8967 15.024 64.8967 14.656V13.888H64.0087ZM64.8967 17.536H64.8487C64.4487 18.16 63.9127 18.608 63.2407 18.88C62.5847 19.152 61.8887 19.288 61.1527 19.288C60.6087 19.288 60.0807 19.208 59.5687 19.048C59.0727 18.904 58.6327 18.68 58.2487 18.376C57.8647 18.072 57.5607 17.696 57.3367 17.248C57.1127 16.8 57.0007 16.28 57.0007 15.688C57.0007 15.016 57.1207 14.448 57.3607 13.984C57.6167 13.52 57.9527 13.136 58.3687 12.832C58.8007 12.528 59.2887 12.296 59.8327 12.136C60.3767 11.96 60.9367 11.832 61.5127 11.752C62.1047 11.672 62.6887 11.624 63.2647 11.608C63.8567 11.592 64.4007 11.584 64.8967 11.584C64.8967 10.944 64.6647 10.44 64.2007 10.072C63.7527 9.688 63.2167 9.496 62.5927 9.496C62.0007 9.496 61.4567 9.624 60.9607 9.88C60.4807 10.12 60.0487 10.456 59.6647 10.888L57.7447 8.92C58.4167 8.296 59.2007 7.832 60.0967 7.528C60.9927 7.208 61.9207 7.048 62.8807 7.048C63.9367 7.048 64.8007 7.184 65.4727 7.456C66.1607 7.712 66.7047 8.096 67.1047 8.608C67.5207 9.12 67.8087 9.752 67.9687 10.504C68.1287 11.24 68.2087 12.096 68.2087 13.072V19H64.8967V17.536ZM74.0673 0.855999V8.92H74.1153C74.1953 8.696 74.3313 8.472 74.5233 8.248C74.7153 8.024 74.9473 7.824 75.2193 7.648C75.4913 7.472 75.8113 7.328 76.1793 7.216C76.5473 7.104 76.9473 7.048 77.3793 7.048C78.2913 7.048 79.0273 7.192 79.5873 7.48C80.1473 7.752 80.5793 8.136 80.8833 8.632C81.2033 9.128 81.4193 9.712 81.5313 10.384C81.6433 11.056 81.6993 11.784 81.6993 12.568V19H78.0993V13.288C78.0993 12.952 78.0833 12.608 78.0513 12.256C78.0353 11.888 77.9633 11.552 77.8353 11.248C77.7233 10.944 77.5393 10.696 77.2833 10.504C77.0433 10.312 76.6913 10.216 76.2273 10.216C75.7633 10.216 75.3873 10.304 75.0993 10.48C74.8113 10.64 74.5873 10.864 74.4273 11.152C74.2833 11.424 74.1873 11.736 74.1393 12.088C74.0913 12.44 74.0673 12.808 74.0673 13.192V19H70.4673V0.855999H74.0673ZM84.2966 0.855999H87.8966V19H84.2966V0.855999ZM97.2029 20.896C96.9629 21.52 96.7309 22.072 96.5069 22.552C96.2829 23.032 95.9949 23.432 95.6429 23.752C95.3069 24.088 94.8749 24.336 94.3469 24.496C93.8189 24.672 93.1229 24.76 92.2589 24.76C91.3309 24.76 90.4349 24.616 89.5709 24.328L90.0509 21.376C90.5949 21.616 91.1549 21.736 91.7309 21.736C92.1309 21.736 92.4589 21.688 92.7149 21.592C92.9709 21.512 93.1789 21.384 93.3389 21.208C93.5149 21.048 93.6589 20.848 93.7709 20.608C93.8829 20.368 94.0029 20.088 94.1309 19.768L94.3949 19.096L89.2829 7.336H93.1709L96.1709 15.04H96.2189L98.7869 7.336H102.483L97.2029 20.896ZM104.467 14.728L112.075 11.752V11.704L104.467 8.728V5.464L116.611 10.216V13.24L104.467 17.992V14.728Z" fill="#2F2F2F"/>
<path d="M22.0884 0.735999L24.8244 1.576L17.6244 20.272L14.9124 19.432L22.0884 0.735999Z" fill="#EC6D41"/>
</svg>
