<svg width="255" height="255" viewBox="0 0 381 380" fill="none" xmlns="http://www.w3.org/2000/svg">
<circle cx="190.5" cy="190" r="190" fill="#EC6D41"/>
<mask id="mask0_104_59" style="mask-type:alpha" maskUnits="userSpaceOnUse" x="0" y="0" width="381" height="380">
<circle cx="190.5" cy="190" r="190" fill="#98B4D4"/>
</mask>
<g mask="url(#mask0_104_59)">
<g clip-path="url(#clip0_104_59)">
<path d="M244.5 362.5C230.1 342.5 218.833 303.834 217.5 284.5L149 255L120.5 362.5H244.5Z" fill="#F9C9B6" stroke="black" stroke-width="4"/>
<mask id="mask1_104_59" style="mask-type:alpha" maskUnits="userSpaceOnUse" x="120" y="255" width="125" height="118">
<path d="M244.5 372.5C230.1 352.5 218.833 303.834 217.5 284.5L149 255L120.5 372.5H244.5Z" fill="#AC6651"/>
</mask>
<g mask="url(#mask1_104_59)">
<g style="mix-blend-mode:multiply">
<ellipse cx="214.5" cy="253" rx="59" ry="54" fill="black"/>
</g>
</g>
<mask id="path-6-inside-1_104_59" fill="white">
<path fill-rule="evenodd" clip-rule="evenodd" d="M274.387 193.917C274.36 193.802 274.332 193.686 274.304 193.57C274.277 193.454 274.249 193.339 274.22 193.223L257.824 124.786C257.807 124.718 257.791 124.651 257.775 124.583C257.759 124.515 257.742 124.447 257.726 124.379L257.653 124.076L257.652 124.076C247.434 82.6315 205.657 57.1479 164.083 67.1087C122.509 77.0696 96.8164 118.718 106.489 160.293L106.487 160.294L123.479 231.212L123.493 231.208C134.095 272.113 175.563 297.149 216.83 287.262C258.098 277.375 283.717 236.265 274.632 194.997L274.645 194.994L274.387 193.917Z"/>
</mask>
<path fill-rule="evenodd" clip-rule="evenodd" d="M274.387 193.917C274.36 193.802 274.332 193.686 274.304 193.57C274.277 193.454 274.249 193.339 274.22 193.223L257.824 124.786C257.807 124.718 257.791 124.651 257.775 124.583C257.759 124.515 257.742 124.447 257.726 124.379L257.653 124.076L257.652 124.076C247.434 82.6315 205.657 57.1479 164.083 67.1087C122.509 77.0696 96.8164 118.718 106.489 160.293L106.487 160.294L123.479 231.212L123.493 231.208C134.095 272.113 175.563 297.149 216.83 287.262C258.098 277.375 283.717 236.265 274.632 194.997L274.645 194.994L274.387 193.917Z" fill="#F9C9B6"/>
<path d="M274.387 193.917L270.493 194.832L270.495 194.841L270.497 194.849L274.387 193.917ZM274.22 193.223L270.331 194.155L270.333 194.164L270.335 194.173L274.22 193.223ZM257.824 124.786L253.931 125.708L253.934 125.718L257.824 124.786ZM257.726 124.379L253.836 125.311L253.839 125.322L257.726 124.379ZM257.653 124.076L261.543 123.144L260.612 119.256L256.723 120.186L257.653 124.076ZM257.652 124.076L253.768 125.034L254.719 128.89L258.582 127.967L257.652 124.076ZM164.083 67.1087L163.151 63.2188L164.083 67.1087ZM106.489 160.293L107.423 164.183L111.285 163.255L110.385 159.387L106.489 160.293ZM106.487 160.294L105.553 156.405L101.666 157.338L102.597 161.226L106.487 160.294ZM123.479 231.212L119.589 232.144L120.521 236.035L124.412 235.101L123.479 231.212ZM123.493 231.208L127.365 230.205L126.379 226.402L122.559 227.319L123.493 231.208ZM216.83 287.262L215.898 283.372H215.898L216.83 287.262ZM274.632 194.997L273.701 191.107L269.882 192.021L270.726 195.857L274.632 194.997ZM274.645 194.994L275.576 198.884L279.467 197.952L278.535 194.062L274.645 194.994ZM278.281 193.003C278.252 192.881 278.223 192.76 278.194 192.638L270.415 194.502C270.441 194.612 270.467 194.722 270.493 194.832L278.281 193.003ZM278.194 192.638C278.165 192.517 278.136 192.395 278.106 192.274L270.335 194.173C270.361 194.282 270.388 194.392 270.415 194.502L278.194 192.638ZM253.934 125.718L270.331 194.155L278.11 192.291L261.713 123.854L253.934 125.718ZM261.716 123.864C261.699 123.794 261.682 123.722 261.665 123.651L253.885 125.515C253.901 125.579 253.916 125.643 253.931 125.708L261.716 123.864ZM261.665 123.651C261.648 123.58 261.631 123.509 261.613 123.437L253.839 125.322C253.854 125.386 253.87 125.45 253.885 125.515L261.665 123.651ZM253.763 125.008L253.836 125.311L261.616 123.447L261.543 123.144L253.763 125.008ZM258.582 127.967L258.584 127.966L256.723 120.186L256.722 120.186L258.582 127.967ZM261.536 123.119C250.792 79.5404 206.865 52.7453 163.151 63.2188L165.015 70.9986C204.449 61.5505 244.076 85.7225 253.768 125.034L261.536 123.119ZM163.151 63.2188C119.437 73.6923 92.4225 117.484 102.593 161.2L110.385 159.387C101.21 119.952 125.581 80.4468 165.015 70.9986L163.151 63.2188ZM107.421 164.183L107.423 164.183L105.555 156.404L105.553 156.405L107.421 164.183ZM127.369 230.28L110.377 159.362L102.597 161.226L119.589 232.144L127.369 230.28ZM122.559 227.319L122.545 227.322L124.412 235.101L124.426 235.098L122.559 227.319ZM119.621 232.212C130.769 275.223 174.37 301.548 217.762 291.152L215.898 283.372C176.755 292.751 137.421 269.003 127.365 230.205L119.621 232.212ZM217.762 291.152C261.154 280.756 288.092 237.53 278.539 194.137L270.726 195.857C279.343 235 255.042 273.994 215.898 283.372L217.762 291.152ZM273.713 191.104L273.701 191.107L275.564 198.887L275.576 198.884L273.713 191.104ZM270.497 194.849L270.755 195.926L278.535 194.062L278.277 192.985L270.497 194.849Z" fill="black" mask="url(#path-6-inside-1_104_59)"/>
</g>
<path d="M244.421 216.33C244.25 214.262 242.137 213.111 240.345 213.817C236.116 215.483 222.127 220.783 212.263 222.14C201.44 223.628 185.051 221.82 180.307 221.231C178.377 220.992 176.658 222.65 176.991 224.665C177.642 228.607 178.984 232.408 180.959 235.891C183.161 239.775 186.107 243.187 189.628 245.933C193.149 248.678 197.176 250.704 201.48 251.893C205.783 253.082 210.279 253.412 214.71 252.864C219.141 252.316 223.421 250.9 227.305 248.698C231.189 246.495 234.602 243.55 237.347 240.029C240.093 236.508 242.118 232.481 243.307 228.177C244.373 224.321 244.749 220.31 244.421 216.33Z" fill="black" stroke="black" stroke-width="4"/>
<mask id="mask2_104_59" style="mask-type:alpha" maskUnits="userSpaceOnUse" x="178" y="215" width="65" height="37">
<path d="M242.293 215.192C242.809 219.362 242.499 223.594 241.38 227.644C240.26 231.695 238.354 235.485 235.77 238.799C233.186 242.113 229.974 244.885 226.319 246.958C222.663 249.031 218.635 250.363 214.465 250.879C210.294 251.395 206.063 251.084 202.012 249.965C197.962 248.846 194.171 246.94 190.858 244.356C187.544 241.771 184.771 238.56 182.699 234.904C180.626 231.249 179.294 227.221 178.778 223.05L242.293 215.192Z" fill="#171921"/>
</mask>
<g mask="url(#mask2_104_59)">
<circle cx="215.022" cy="255.314" r="21.5" transform="rotate(-7.05286 215.022 255.314)" fill="#FC909F"/>
</g>
<path d="M219.5 132.214C225.167 129.548 238.5 127.114 246.5 138.714" stroke="black" stroke-width="4" stroke-linecap="round"/>
<path d="M144.079 157.521C146.15 151.61 153.761 140.396 167.642 142.822" stroke="black" stroke-width="4" stroke-linecap="round"/>
<path fill-rule="evenodd" clip-rule="evenodd" d="M157.787 173.072C157.901 173.885 158.934 174.066 159.509 173.48C161.974 170.964 165.764 169.116 170.163 168.593C172.758 168.285 175.254 168.475 177.479 169.065C178.233 169.266 178.974 168.629 178.71 167.895C177.045 163.249 172.345 160.196 167.236 160.803C161.294 161.509 157.05 166.897 157.756 172.839C157.766 172.917 157.776 172.995 157.787 173.072Z" fill="black"/>
<path fill-rule="evenodd" clip-rule="evenodd" d="M221.885 163.073C221.998 163.886 223.031 164.067 223.606 163.482C226.049 160.996 229.798 159.17 234.149 158.653C236.713 158.348 239.181 158.535 241.38 159.117C242.134 159.316 242.875 158.679 242.611 157.946C240.956 153.352 236.304 150.335 231.248 150.935C225.363 151.635 221.158 156.973 221.857 162.859C221.866 162.93 221.875 163.002 221.885 163.073Z" fill="black"/>
<path d="M200.778 178.927C205.998 176.94 215.101 177.54 214.541 187.64C214.043 196.615 204.834 198.398 201.9 196.305" stroke="black" stroke-width="4"/>
<path d="M125 180.176C122.67 179.408 120.155 179 117.58 179C107.087 179 98.5801 185.5 99.58 197.5C100.622 210 108.087 214.5 118.58 214.5C119.748 214.5 120.891 214.397 122 214.201C123.211 213.987 124.381 213.661 125.5 213.235" stroke="black" stroke-width="8"/>
<path d="M126 213.036C123.72 213.979 121.213 214.5 118.58 214.5C108.087 214.5 100.622 210 99.58 197.5C98.5801 185.5 107.087 179 117.58 179C120.717 179 123.767 179.606 126.5 180.73L126 213.036Z" fill="#F9C9B6"/>
<path d="M122 187.5C118 185.667 109.2 184.7 106 195.5" stroke="black" stroke-width="4"/>
<path d="M111.5 188C113.667 189.833 117.8 195.5 117 203.5" stroke="black" stroke-width="4"/>
<path d="M239.26 365.932C238.771 365.902 238.365 365.872 238.044 365.847C231.893 356.458 226.289 340.969 221.947 325.059C217.726 309.589 214.761 293.968 213.647 283.649C250.72 272.931 273.958 234.667 268.371 195.189C268.364 195.117 268.356 195.067 268.356 195.066C268.348 195.006 268.337 194.938 268.325 194.867C268.302 194.724 268.268 194.532 268.226 194.3C268.141 193.832 268.016 193.172 267.853 192.346C267.528 190.693 267.052 188.358 266.442 185.532C265.222 179.88 263.467 172.249 261.325 164.155C259.185 156.065 256.652 147.485 253.872 139.945C251.113 132.46 248.041 125.802 244.764 121.706L244.467 121.335L244.032 121.146C242.1 120.308 240.093 119.374 237.999 118.399C228.068 113.775 216.159 108.23 200.735 107.62C181.96 106.877 158.184 113.396 126.044 136.706L124.021 138.173L125.967 139.74C141.893 152.574 145.336 169.598 144.6 184.048C144.039 195.077 141.051 204.459 139.365 209.149C138.204 207.452 137.464 205.319 136.908 202.814C136.523 201.083 136.243 199.258 135.949 197.347L135.903 197.045C135.596 195.051 135.269 192.97 134.792 190.961C133.841 186.95 132.232 182.941 128.66 180.102C125.081 177.257 119.864 175.848 112.267 176.272L110.04 176.396L110.505 178.578L121.863 231.891L121.882 231.98L121.91 232.068C125.968 244.93 132.926 256.078 141.823 264.88C141.899 265.007 142.009 265.193 142.15 265.434C142.439 265.928 142.856 266.653 143.361 267.563C144.37 269.384 145.729 271.941 147.121 274.886C149.935 280.835 152.782 288.138 153.33 294.102C153.886 300.154 152.365 307.962 150.623 314.412C149.76 317.605 148.861 320.406 148.177 322.407C148.035 322.824 147.902 323.206 147.781 323.549C142.749 321.144 138.254 321.323 134.402 323.565C130.238 325.989 127.189 330.625 124.919 335.781C120.771 345.202 118.776 357.42 117.855 365.002C92.9846 359.298 73.781 353.507 60.7149 349.107C54.0012 346.846 48.908 344.953 45.4993 343.627C43.7949 342.964 42.5117 342.443 41.6575 342.089C41.4454 342.002 41.2598 341.924 41.1007 341.857C40.9477 341.466 40.7377 340.916 40.4828 340.219C39.9158 338.667 39.1268 336.384 38.2485 333.479C36.4915 327.667 34.3806 319.38 32.9734 309.502C30.1563 289.725 30.1769 263.696 41.3698 238.384C43.179 234.292 45.44 230.089 47.8903 225.533C57.3582 207.931 69.6551 185.07 69.6551 143.084C69.6551 112.493 84.5029 86.7305 106.362 68.5692C128.241 50.3915 157.06 39.9109 184.737 39.9109C199.868 39.9109 212.033 41.6444 221.811 47.5511C231.528 53.4212 239.179 63.5978 244.862 81.1322C245.44 82.9168 247.351 84.0074 249.219 83.4015C260.534 79.7304 277.691 83.4361 292.173 92.8904C306.591 102.303 317.789 117.046 317.789 134.814C317.789 150.24 315.147 160.664 312.571 170.815L312.571 170.815C309.452 183.104 306.44 194.974 308.565 214.313C309.274 220.762 310.716 225.336 312.731 229.128C314.713 232.859 317.212 235.747 319.845 238.792L319.905 238.861C326.179 246.113 329.034 252.079 329.955 257.327C330.875 262.562 329.912 267.31 328.123 272.237C327.223 274.712 326.129 277.197 324.97 279.815L324.87 280.04C323.749 282.573 322.574 285.225 321.519 288.016C319.336 293.787 317.633 300.223 317.802 307.851C317.946 314.326 319.094 318.764 320.811 322.122C322.508 325.442 324.699 327.565 326.611 329.417L326.662 329.466C328.405 331.155 329.855 332.577 330.928 334.57C331.887 336.351 332.598 338.702 332.717 342.232C308.708 356.511 284.945 362.413 267.101 364.734C258.065 365.91 250.557 366.166 245.318 366.129C242.699 366.11 240.649 366.019 239.26 365.932Z" fill="#131313" stroke="black" stroke-width="3.82184"/>
<path d="M321.866 379.863H48.9563C48.9907 379.793 49.0255 379.722 49.0604 379.651C53.6052 370.395 61.9899 353.319 72.9025 338.041C79.0961 329.37 86.0303 321.387 93.4416 315.772C100.854 310.156 108.561 307.04 116.392 307.726C131.446 309.043 144.855 317.285 158.317 325.56C159.592 326.344 160.868 327.129 162.146 327.908C176.631 336.735 191.505 344.931 207.865 341.345C213.399 340.131 217.129 337.535 219.476 334.18C221.79 330.873 222.622 327.029 222.766 323.517C222.91 319.999 222.371 316.674 221.811 314.256C221.549 313.126 221.279 312.179 221.064 311.484C224.689 307.835 228.527 305.71 232.489 304.753C236.784 303.716 241.376 304.016 246.207 305.445C255.937 308.323 266.347 315.697 276.507 325.179C295.121 342.552 312.2 366.323 321.866 379.863Z" fill="#98B4D4" stroke="black" stroke-width="4.27431"/>
</g>
<defs>
<clipPath id="clip0_104_59">
<rect width="200" height="320" fill="white" transform="translate(90.5 43)"/>
</clipPath>
</defs>
</svg>
