<svg width="30" height="30" viewBox="0 0 30 30" fill="none" xmlns="http://www.w3.org/2000/svg">
<g clip-path="url(#clip0_141_607)">
<path fill-rule="evenodd" clip-rule="evenodd" d="M15.0003 0.625C11.4393 0.626848 7.99513 1.88807 5.28356 4.18315C2.57198 6.47823 0.769849 9.65751 0.1994 13.1525C-0.371048 16.6475 0.327378 20.2303 2.16981 23.2602C4.01224 26.2902 6.87852 28.5697 10.2561 29.6912C11.0013 29.8295 11.282 29.3677 11.282 28.975C11.282 28.5823 11.2671 27.4438 11.2621 26.199C7.08921 27.1005 6.20745 24.4381 6.20745 24.4381C5.52687 22.7093 4.54327 22.2549 4.54327 22.2549C3.18211 21.3312 4.64511 21.3485 4.64511 21.3485C6.15281 21.4547 6.94516 22.8871 6.94516 22.8871C8.28148 25.1667 10.4548 24.5073 11.3093 24.122C11.4434 23.1563 11.8334 22.4994 12.2631 22.1264C8.92976 21.751 5.42752 20.4717 5.42752 14.7568C5.40686 13.2746 5.96 11.8413 6.97248 10.7534C6.81848 10.378 6.30432 8.86154 7.11902 6.80179C7.11902 6.80179 8.37835 6.40169 11.2447 8.33055C13.7033 7.66203 16.2973 7.66203 18.7559 8.33055C21.6198 6.40169 22.8766 6.80179 22.8766 6.80179C23.6938 8.8566 23.1796 10.373 23.0256 10.7534C24.0413 11.8415 24.5956 13.2773 24.5731 14.7617C24.5731 20.489 21.0634 21.751 17.7251 22.119C18.2616 22.5833 18.741 23.4897 18.741 24.8827C18.741 26.8782 18.7236 28.4835 18.7236 28.975C18.7236 29.3726 18.9943 29.8369 19.7544 29.6912C23.1324 28.5696 25.999 26.2896 27.8414 23.2592C29.6838 20.2287 30.3818 16.6454 29.8107 13.1501C29.2396 9.65475 27.4366 6.47544 24.7241 4.18076C22.0117 1.88607 18.5667 0.625676 15.0053 0.625H15.0003Z" fill="#FFF8F5"/>
<path d="M5.68058 22.04C5.64829 22.1141 5.52906 22.1364 5.43219 22.0845C5.33532 22.0326 5.26329 21.9363 5.29807 21.8597C5.33284 21.7832 5.44958 21.7634 5.54645 21.8153C5.64332 21.8672 5.71783 21.9659 5.68058 22.04Z" fill="#FFF8F5"/>
<path d="M6.2891 22.7142C6.23766 22.7399 6.17881 22.7471 6.12262 22.7345C6.06644 22.7219 6.01641 22.6903 5.9811 22.645C5.88423 22.5413 5.86435 22.398 5.93887 22.3338C6.01338 22.2696 6.14752 22.2993 6.24439 22.403C6.34126 22.5067 6.36361 22.65 6.2891 22.7142Z" fill="#FFF8F5"/>
<path d="M6.88034 23.5712C6.78843 23.6354 6.63194 23.5712 6.54501 23.4428C6.52097 23.4198 6.50185 23.3921 6.48879 23.3616C6.47573 23.331 6.46899 23.2982 6.46899 23.265C6.46899 23.2318 6.47573 23.1989 6.48879 23.1684C6.50185 23.1378 6.52097 23.1102 6.54501 23.0872C6.63691 23.0254 6.7934 23.0872 6.88034 23.2131C6.96727 23.3391 6.96976 23.507 6.88034 23.5712Z" fill="#FFF8F5"/>
<path d="M7.68258 24.4011C7.60062 24.4924 7.4342 24.4677 7.29759 24.3443C7.16098 24.2208 7.12868 24.0528 7.21065 23.9639C7.29261 23.875 7.45903 23.8997 7.60061 24.0207C7.74219 24.1417 7.76952 24.3121 7.68258 24.4011Z" fill="#FFF8F5"/>
<path d="M8.80772 24.8852C8.77046 25.0013 8.60155 25.0532 8.43265 25.0038C8.26375 24.9544 8.15198 24.8161 8.18427 24.6975C8.21656 24.579 8.38795 24.5247 8.55933 24.579C8.73072 24.6333 8.84001 24.7642 8.80772 24.8852Z" fill="#FFF8F5"/>
<path d="M10.0348 24.9691C10.0348 25.0901 9.8957 25.1938 9.71686 25.1963C9.53803 25.1988 9.39148 25.1 9.39148 24.979C9.39148 24.858 9.53057 24.7542 9.70941 24.7518C9.88824 24.7493 10.0348 24.8456 10.0348 24.9691Z" fill="#FFF8F5"/>
<path d="M11.1774 24.7789C11.1997 24.8999 11.0755 25.0259 10.8967 25.0555C10.7179 25.0851 10.5614 25.0135 10.539 24.895C10.5167 24.7764 10.6458 24.648 10.8197 24.6159C10.9936 24.5838 11.155 24.6579 11.1774 24.7789Z" fill="#FFF8F5"/>
</g>
<defs>
<clipPath id="clip0_141_607">
<rect width="30" height="30" fill="white"/>
</clipPath>
</defs>
</svg>
