<svg id="icon-github" viewBox="0 0 32 32">
<path d="M15.994 0.484c-3.961 0.001-7.587 1.436-10.387 3.814l0.023-0.019c-2.814 2.389-4.776 5.707-5.411 9.475l-0.013 0.093c-0.131 0.766-0.206 1.648-0.206 2.547 0 3.044 0.859 5.888 2.348 8.302l-0.039-0.068c1.975 3.205 4.964 5.622 8.513 6.827l0.113 0.033c0.795 0.148 1.094-0.345 1.094-0.764s-0.016-1.633-0.021-2.961c-4.451 0.961-5.392-1.877-5.392-1.877-0.725-1.845-1.775-2.33-1.775-2.33-1.451-0.986 0.109-0.966 0.109-0.966 1.609 0.113 2.453 1.641 2.453 1.641 1.426 2.432 3.744 1.728 4.655 1.317 0.143-1.030 0.559-1.731 1.018-2.129-3.555-0.4-7.291-1.764-7.291-7.861-0-0.025-0.001-0.054-0.001-0.083 0-1.62 0.627-3.093 1.652-4.191l-0.003 0.004c-0.164-0.4-0.714-2.017 0.156-4.214 0 0 1.344-0.427 4.401 1.631 1.201-0.339 2.58-0.535 4.005-0.535s2.804 0.195 4.113 0.56l-0.107-0.026c3.055-2.060 4.397-1.633 4.397-1.633 0.871 2.193 0.323 3.81 0.159 4.215 1.023 1.092 1.651 2.565 1.651 4.184 0 0.032-0 0.065-0.001 0.097l0-0.005c0 6.109-3.744 7.455-7.305 7.847 0.573 0.495 1.084 1.461 1.084 2.948 0 2.128-0.018 3.84-0.018 4.365 0 0.425 0.288 0.919 1.099 0.764 3.662-1.238 6.651-3.655 8.587-6.792l0.040-0.069c1.449-2.345 2.308-5.189 2.308-8.232 0-0.901-0.075-1.784-0.22-2.643l0.013 0.093c-0.649-3.862-2.611-7.179-5.403-9.549l-0.023-0.019c-2.777-2.357-6.401-3.79-10.361-3.79-0.002 0-0.005 0-0.007 0h-0.005z"></path>
<path d="M6.053 23.327c-0.034 0.079-0.161 0.102-0.265 0.047-0.103-0.054-0.18-0.158-0.143-0.239 0.037-0.082 0.162-0.103 0.265-0.048 0.103 0.055 0.183 0.16 0.144 0.24zM6.703 24.046c-0.035 0.018-0.076 0.028-0.12 0.028-0.085 0-0.16-0.040-0.209-0.101l-0-0.001c-0.103-0.111-0.125-0.263-0.045-0.332 0.079-0.068 0.223-0.037 0.325 0.075 0.103 0.11 0.128 0.262 0.048 0.331zM7.333 24.96c-0.098 0.068-0.265 0-0.357-0.137-0.050-0.048-0.081-0.115-0.081-0.19s0.031-0.142 0.081-0.19l0-0c0.098-0.066 0.265 0 0.357 0.134s0.096 0.314 0 0.382zM8.189 25.845c-0.087 0.097-0.266 0.071-0.411-0.061-0.146-0.131-0.181-0.31-0.093-0.405 0.087-0.095 0.265-0.068 0.416 0.061 0.15 0.128 0.179 0.31 0.087 0.405zM9.389 26.361c-0.041 0.124-0.22 0.179-0.4 0.127-0.181-0.053-0.3-0.201-0.266-0.327 0.035-0.126 0.218-0.183 0.4-0.126 0.183 0.058 0.3 0.197 0.266 0.326zM10.698 26.452c0 0.128-0.149 0.239-0.339 0.241-0.191 0.003-0.348-0.102-0.348-0.231s0.149-0.24 0.339-0.242c0.192-0.003 0.348 0.1 0.348 0.231zM11.916 26.248c0.025 0.128-0.108 0.263-0.299 0.294-0.192 0.032-0.358-0.044-0.382-0.171s0.114-0.263 0.299-0.299c0.187-0.033 0.358 0.046 0.382 0.175z"></path>
</svg>