<svg width="31" height="30" viewBox="0 0 31 30" fill="none" xmlns="http://www.w3.org/2000/svg">
<g clip-path="url(#clip0_113_99)">
<path fill-rule="evenodd" clip-rule="evenodd" d="M15.5003 0.625C11.9394 0.626848 8.49516 1.88807 5.78359 4.18315C3.07201 6.47823 1.26988 9.65751 0.699431 13.1525C0.128982 16.6475 0.827408 20.2303 2.66984 23.2602C4.51227 26.2902 7.37855 28.5697 10.7562 29.6912C11.5013 29.8295 11.782 29.3677 11.782 28.975C11.782 28.5823 11.7671 27.4438 11.7621 26.199C7.58924 27.1005 6.70748 24.4381 6.70748 24.4381C6.02691 22.7093 5.0433 22.2549 5.0433 22.2549C3.68214 21.3312 5.14514 21.3485 5.14514 21.3485C6.65284 21.4547 7.44519 22.8871 7.44519 22.8871C8.78151 25.1667 10.9549 24.5073 11.8093 24.122C11.9434 23.1563 12.3334 22.4994 12.7631 22.1264C9.42979 21.751 5.92755 20.4717 5.92755 14.7568C5.90689 13.2746 6.46003 11.8413 7.47251 10.7534C7.31851 10.378 6.80435 8.86154 7.61905 6.80179C7.61905 6.80179 8.87838 6.40169 11.7447 8.33055C14.2033 7.66203 16.7973 7.66203 19.2559 8.33055C22.1198 6.40169 23.3766 6.80179 23.3766 6.80179C24.1938 8.8566 23.6797 10.373 23.5257 10.7534C24.5414 11.8415 25.0957 13.2773 25.0731 14.7617C25.0731 20.489 21.5634 21.751 18.2251 22.119C18.7616 22.5833 19.241 23.4897 19.241 24.8827C19.241 26.8782 19.2236 28.4835 19.2236 28.975C19.2236 29.3726 19.4944 29.8369 20.2544 29.6912C23.6324 28.5696 26.499 26.2896 28.3414 23.2592C30.1838 20.2287 30.8819 16.6454 30.3108 13.1501C29.7397 9.65475 27.9366 6.47544 25.2242 4.18076C22.5117 1.88607 19.0667 0.625676 15.5053 0.625H15.5003Z" fill="#EC6D41"/>
<path d="M6.18055 22.04C6.14826 22.1141 6.02903 22.1363 5.93216 22.0845C5.83529 22.0326 5.76326 21.9363 5.79804 21.8597C5.83281 21.7832 5.94955 21.7634 6.04642 21.8153C6.14329 21.8671 6.2178 21.9659 6.18055 22.04Z" fill="#EC6D41"/>
<path d="M6.78911 22.7142C6.73767 22.74 6.67882 22.7472 6.62264 22.7346C6.56645 22.722 6.51643 22.6903 6.48112 22.6451C6.38425 22.5414 6.36436 22.3981 6.43888 22.3339C6.5134 22.2697 6.64753 22.2993 6.74441 22.4031C6.84128 22.5068 6.86363 22.65 6.78911 22.7142Z" fill="#EC6D41"/>
<path d="M7.38031 23.5712C7.2884 23.6354 7.13191 23.5712 7.04498 23.4428C7.02094 23.4198 7.00182 23.3921 6.98876 23.3616C6.9757 23.331 6.96896 23.2982 6.96896 23.265C6.96896 23.2318 6.9757 23.1989 6.98876 23.1684C7.00182 23.1378 7.02094 23.1102 7.04498 23.0872C7.13688 23.0254 7.29337 23.0872 7.38031 23.2131C7.46724 23.3391 7.46972 23.507 7.38031 23.5712Z" fill="#EC6D41"/>
<path d="M8.18257 24.4011C8.1006 24.4924 7.93419 24.4677 7.79757 24.3443C7.66096 24.2208 7.62866 24.0528 7.71063 23.9639C7.7926 23.875 7.95902 23.8997 8.1006 24.0207C8.24218 24.1417 8.2695 24.3121 8.18257 24.4011Z" fill="#EC6D41"/>
<path d="M9.30772 24.8851C9.27046 25.0012 9.10155 25.0531 8.93265 25.0037C8.76375 24.9543 8.65198 24.816 8.68427 24.6974C8.71656 24.5789 8.88795 24.5245 9.05933 24.5789C9.23072 24.6332 9.34001 24.7641 9.30772 24.8851Z" fill="#EC6D41"/>
<path d="M10.5348 24.9691C10.5348 25.0901 10.3957 25.1938 10.2169 25.1963C10.038 25.1988 9.89148 25.1 9.89148 24.979C9.89148 24.858 10.0306 24.7542 10.2094 24.7518C10.3882 24.7493 10.5348 24.8456 10.5348 24.9691Z" fill="#EC6D41"/>
<path d="M11.6774 24.7789C11.6997 24.8999 11.5755 25.0259 11.3967 25.0555C11.2179 25.0852 11.0614 25.0135 11.039 24.895C11.0167 24.7765 11.1458 24.648 11.3197 24.6159C11.4936 24.5838 11.655 24.6579 11.6774 24.7789Z" fill="#EC6D41"/>
</g>
<defs>
<clipPath id="clip0_113_99">
<rect width="30" height="30" fill="white" transform="translate(0.5)"/>
</clipPath>
</defs>
</svg>
