<svg width="31" height="30" viewBox="0 0 31 30" fill="none" xmlns="http://www.w3.org/2000/svg">
<g clip-path="url(#clip0_113_115)">
<path d="M28.2793 0H2.71484C1.49023 0 0.5 0.966797 0.5 2.16211V27.832C0.5 29.0273 1.49023 30 2.71484 30H28.2793C29.5039 30 30.5 29.0273 30.5 27.8379V2.16211C30.5 0.966797 29.5039 0 28.2793 0ZM9.40039 25.5645H4.94727V11.2441H9.40039V25.5645ZM7.17383 9.29297C5.74414 9.29297 4.58984 8.13867 4.58984 6.71484C4.58984 5.29102 5.74414 4.13672 7.17383 4.13672C8.59766 4.13672 9.75195 5.29102 9.75195 6.71484C9.75195 8.13281 8.59766 9.29297 7.17383 9.29297ZM26.0645 25.5645H21.6172V18.6035C21.6172 16.9453 21.5879 14.8066 19.3027 14.8066C16.9883 14.8066 16.6367 16.6172 16.6367 18.4863V25.5645H12.1953V11.2441H16.4609V13.2012H16.5195C17.1113 12.0762 18.5645 10.8867 20.7266 10.8867C25.2324 10.8867 26.0645 13.8516 26.0645 17.707V25.5645V25.5645Z" fill="#EC6D41"/>
</g>
<defs>
<clipPath id="clip0_113_115">
<rect width="30" height="30" fill="white" transform="translate(0.5)"/>
</clipPath>
</defs>
</svg>
