<svg width="100" height="100" viewBox="0 0 100 100" fill="none" xmlns="http://www.w3.org/2000/svg">
<rect width="100" height="100" rx="10" fill="#FFF8F5"/>
<path d="M55.2445 50.7C54.1112 50.7 52.6779 50.7667 50.9445 50.9C49.2779 50.9667 47.6445 51.2333 46.0445 51.7C44.5112 52.1667 43.1779 52.8667 42.0445 53.8C40.9779 54.7333 40.4445 56.0333 40.4445 57.7C40.4445 59.5 41.2112 60.8333 42.7445 61.7C44.2779 62.5667 45.8779 63 47.5445 63C49.0112 63 50.4112 62.8 51.7445 62.4C53.1445 62 54.3779 61.4333 55.4445 60.7C56.5112 59.9667 57.3445 59.0333 57.9445 57.9C58.6112 56.7667 58.9445 55.4333 58.9445 53.9V50.7H55.2445ZM58.9445 65.9H58.7445C57.0779 68.5 54.8445 70.3667 52.0445 71.5C49.3112 72.6333 46.4112 73.2 43.3445 73.2C41.0779 73.2 38.8779 72.8667 36.7445 72.2C34.6779 71.6 32.8445 70.6667 31.2445 69.4C29.6445 68.1333 28.3779 66.5667 27.4445 64.7C26.5112 62.8333 26.0445 60.6667 26.0445 58.2C26.0445 55.4 26.5445 53.0333 27.5445 51.1C28.6112 49.1667 30.0112 47.5667 31.7445 46.3C33.5445 45.0333 35.5779 44.0667 37.8445 43.4C40.1112 42.6667 42.4445 42.1333 44.8445 41.8C47.3112 41.4667 49.7445 41.2667 52.1445 41.2C54.6112 41.1333 56.8779 41.1 58.9445 41.1C58.9445 38.4333 57.9779 36.3333 56.0445 34.8C54.1779 33.2 51.9445 32.4 49.3445 32.4C46.8779 32.4 44.6112 32.9333 42.5445 34C40.5445 35 38.7445 36.4 37.1445 38.2L29.1445 30C31.9445 27.4 35.2112 25.4667 38.9445 24.2C42.6779 22.8667 46.5445 22.2 50.5445 22.2C54.9445 22.2 58.5445 22.7667 61.3445 23.9C64.2112 24.9667 66.4779 26.5667 68.1445 28.7C69.8779 30.8333 71.0779 33.4667 71.7445 36.6C72.4112 39.6667 72.7445 43.2333 72.7445 47.3V72H58.9445V65.9Z" fill="#EC6D41"/>
</svg>
