<svg width="31" height="30" viewBox="0 0 31 30" fill="none" xmlns="http://www.w3.org/2000/svg">
<g clip-path="url(#clip0_113_123)">
<path d="M9.9344 27.1884C21.2552 27.1884 27.4472 17.8092 27.4472 9.67556C27.4472 9.40916 27.4472 9.14396 27.4292 8.87996C28.6338 8.00865 29.6736 6.92981 30.5 5.69396C29.3767 6.19196 28.185 6.5184 26.9648 6.66236C28.2498 5.89322 29.2114 4.68334 29.6708 3.25796C28.4626 3.97497 27.1408 4.48024 25.7624 4.75196C24.8344 3.76518 23.607 3.11176 22.2702 2.89281C20.9335 2.67387 19.5618 2.9016 18.3675 3.54077C17.1731 4.17995 16.2228 5.19493 15.6634 6.42864C15.1041 7.66236 14.9669 9.04604 15.2732 10.3656C12.8261 10.2428 10.4322 9.60685 8.24682 8.49896C6.06144 7.39108 4.13345 5.83603 2.588 3.93476C1.80091 5.28975 1.55984 6.89379 1.91387 8.42029C2.26791 9.94678 3.19043 11.281 4.4936 12.1512C3.51404 12.1225 2.55581 11.8582 1.7 11.3808V11.4588C1.70039 12.8798 2.19231 14.257 3.09234 15.3567C3.99236 16.4564 5.24508 17.211 6.638 17.4924C5.73185 17.7395 4.78109 17.7757 3.8588 17.598C4.25227 18.8209 5.01804 19.8903 6.04905 20.6566C7.08006 21.423 8.32478 21.8481 9.6092 21.8724C8.33305 22.8755 6.87164 23.6171 5.30859 24.0549C3.74554 24.4926 2.11152 24.6179 0.5 24.4236C3.31479 26.2298 6.58991 27.188 9.9344 27.1836" fill="#EC6D41"/>
</g>
<defs>
<clipPath id="clip0_113_123">
<rect width="30" height="30" fill="white" transform="translate(0.5)"/>
</clipPath>
</defs>
</svg>
