<svg width="381" height="380" fill="none" xmlns="http://www.w3.org/2000/svg"><circle cx="190.5" cy="190" r="190" fill="#EC6D41"/><mask id="a" style="mask-type:alpha" maskUnits="userSpaceOnUse" x="0" y="0" width="381" height="380"><circle cx="190.5" cy="190" r="190" fill="#98B4D4"/></mask><g mask="url(#a)"><g clip-path="url(#b)"><path d="M244.5 362.5c-14.4-20-25.667-58.666-27-78L149 255l-28.5 107.5h124Z" fill="#F9C9B6" stroke="#000" stroke-width="4"/><mask id="c" style="mask-type:alpha" maskUnits="userSpaceOnUse" x="120" y="255" width="125" height="118"><path d="M244.5 372.5c-14.4-20-25.667-68.666-27-88L149 255l-28.5 117.5h124Z" fill="#AC6651"/></mask><g mask="url(#c)"><ellipse cx="214.5" cy="253" rx="59" ry="54" fill="#000" style="mix-blend-mode:multiply"/></g><mask id="d" fill="#fff"><path fill-rule="evenodd" clip-rule="evenodd" d="m274.387 193.917-.083-.347a21.858 21.858 0 0 0-.084-.347l-16.396-68.437a14.954 14.954 0 0 1-.049-.203l-.049-.204-.073-.303h-.001c-10.218-41.444-51.995-66.928-93.569-56.967-41.574 9.96-67.267 51.609-57.594 93.184l-.002.001 16.992 70.918.014-.004c10.602 40.905 52.07 65.941 93.337 56.054 41.268-9.887 66.887-50.997 57.802-92.265l.013-.003-.258-1.077Z"/></mask><path fill-rule="evenodd" clip-rule="evenodd" d="m274.387 193.917-.083-.347a21.858 21.858 0 0 0-.084-.347l-16.396-68.437a14.954 14.954 0 0 1-.049-.203l-.049-.204-.073-.303h-.001c-10.218-41.444-51.995-66.928-93.569-56.967-41.574 9.96-67.267 51.609-57.594 93.184l-.002.001 16.992 70.918.014-.004c10.602 40.905 52.07 65.941 93.337 56.054 41.268-9.887 66.887-50.997 57.802-92.265l.013-.003-.258-1.077Z" fill="#F9C9B6"/><path d="m274.387 193.917-3.894.915.002.009.002.008 3.89-.932Zm-.167-.694-3.889.932.002.009.002.009 3.885-.95Zm-16.396-68.437-3.893.922.003.01 3.89-.932Zm-.098-.407-3.89.932.003.011 3.887-.943Zm-.073-.303 3.89-.932-.931-3.888-3.889.93.93 3.89Zm-.001 0-3.884.958.951 3.856 3.863-.923-.93-3.891Zm-93.569-56.967-.932-3.89.932 3.89Zm-57.594 93.184.934 3.89 3.862-.928-.9-3.868-3.896.906Zm-.002.001-.934-3.889-3.887.933.931 3.888 3.89-.932Zm16.992 70.918-3.89.932.932 3.891 3.891-.934-.933-3.889Zm.014-.004 3.872-1.003-.986-3.803-3.82.917.934 3.889Zm93.337 56.054-.932-3.89.932 3.89Zm57.802-92.265-.931-3.89-3.819.914.844 3.836 3.906-.86Zm.013-.003.931 3.89 3.891-.932-.932-3.89-3.89.932Zm3.636-1.991-.087-.365-7.779 1.864.078.33 7.788-1.829Zm-.087-.365-.088-.364-7.771 1.899.08.329 7.779-1.864Zm-24.26-66.92 16.397 68.437 7.779-1.864-16.397-68.437-7.779 1.864Zm7.782-1.854-.051-.213-7.78 1.864.046.193 7.785-1.844Zm-.051-.213a21.977 21.977 0 0 0-.052-.214l-7.774 1.885.046.193 7.78-1.864Zm-7.902 1.357.073.303 7.78-1.864-.073-.303-7.78 1.864Zm4.819 2.959.002-.001-1.861-7.78h-.001l1.86 7.781Zm2.954-4.848c-10.744-43.579-54.671-70.374-98.385-59.9l1.864 7.78c39.434-9.448 79.061 14.724 88.753 54.035l7.768-1.915Zm-98.385-59.9c-43.714 10.473-70.729 54.265-60.558 97.981l7.792-1.813c-9.175-39.435 15.196-78.94 54.63-88.388l-1.864-7.78Zm-55.73 100.964h.002l-1.868-7.779-.002.001 1.868 7.778Zm19.948 66.097-16.992-70.918-7.78 1.864 16.992 70.918 7.78-1.864Zm-4.81-2.961-.014.003 1.867 7.779.014-.003-1.867-7.779Zm-2.938 4.893c11.148 43.011 54.749 69.336 98.141 58.94l-1.864-7.78c-39.143 9.379-78.477-14.369-88.533-53.167l-7.744 2.007Zm98.141 58.94c43.392-10.396 70.33-53.622 60.777-97.015l-7.813 1.72c8.617 39.143-15.684 78.137-54.828 87.515l1.864 7.78Zm55.951-100.048-.012.003 1.863 7.78.012-.003-1.863-7.78Zm-3.216 3.745.258 1.077 7.78-1.864-.258-1.077-7.78 1.864Z" fill="#000" mask="url(#d)"/></g><path d="M244.421 216.33c-.171-2.068-2.284-3.219-4.076-2.513-4.229 1.666-18.218 6.966-28.082 8.323-10.823 1.488-27.212-.32-31.956-.909-1.93-.239-3.649 1.419-3.316 3.434a33.986 33.986 0 0 0 12.637 21.268 34.005 34.005 0 0 0 37.677 2.765 34.004 34.004 0 0 0 17.116-32.368Z" fill="#000" stroke="#000" stroke-width="4"/><mask id="e" style="mask-type:alpha" maskUnits="userSpaceOnUse" x="178" y="215" width="65" height="37"><path d="M242.293 215.192a32.003 32.003 0 0 1-6.523 23.607 32.007 32.007 0 0 1-21.305 12.08 32.009 32.009 0 0 1-23.607-6.523 31.996 31.996 0 0 1-12.08-21.306l63.515-7.858Z" fill="#171921"/></mask><g mask="url(#e)"><circle cx="215.022" cy="255.314" r="21.5" transform="rotate(-7.053 215.022 255.314)" fill="#FC909F"/></g><path d="M219.5 132.214c5.667-2.666 19-5.1 27 6.5M144.079 157.521c2.071-5.911 9.682-17.125 23.563-14.699" stroke="#000" stroke-width="4" stroke-linecap="round"/><path fill-rule="evenodd" clip-rule="evenodd" d="M157.787 173.072c.114.813 1.147.994 1.722.408 2.465-2.516 6.255-4.364 10.654-4.887 2.595-.308 5.091-.118 7.316.472.754.201 1.495-.436 1.231-1.17-1.665-4.646-6.365-7.699-11.474-7.092-5.942.706-10.186 6.094-9.48 12.036l.031.233ZM221.885 163.073c.113.813 1.146.994 1.721.409 2.443-2.486 6.192-4.312 10.543-4.829 2.564-.305 5.032-.118 7.231.464.754.199 1.495-.438 1.231-1.171-1.655-4.594-6.307-7.611-11.363-7.011-5.885.7-10.09 6.038-9.391 11.924l.028.214Z" fill="#000"/><path d="M200.778 178.927c5.22-1.987 14.323-1.387 13.763 8.713-.498 8.975-9.707 10.758-12.641 8.665" stroke="#000" stroke-width="4"/><path d="M125 180.176a23.754 23.754 0 0 0-7.42-1.176c-10.493 0-19 6.5-18 18.5 1.042 12.5 8.507 17 19 17a19.64 19.64 0 0 0 3.42-.299 19.245 19.245 0 0 0 3.5-.966" stroke="#000" stroke-width="8"/><path d="M126 213.036a19.373 19.373 0 0 1-7.42 1.464c-10.493 0-17.958-4.5-19-17-1-12 7.507-18.5 18-18.5 3.137 0 6.187.606 8.92 1.73l-.5 32.306Z" fill="#F9C9B6"/><path d="M122 187.5c-4-1.833-12.8-2.8-16 8" stroke="#000" stroke-width="4"/><path d="M111.5 188c2.167 1.833 6.3 7.5 5.5 15.5" stroke="#000" stroke-width="4"/><path d="M239.26 365.932c-.489-.03-.895-.06-1.216-.085-6.151-9.389-11.755-24.878-16.097-40.788-4.221-15.47-7.186-31.091-8.3-41.41 37.073-10.718 60.311-48.982 54.724-88.46-.007-.072-.015-.122-.015-.123a31.942 31.942 0 0 0-.13-.766 136.35 136.35 0 0 0-.373-1.954 384.883 384.883 0 0 0-1.411-6.814 486.965 486.965 0 0 0-5.117-21.377c-2.14-8.09-4.673-16.67-7.453-24.21-2.759-7.485-5.831-14.143-9.108-18.239l-.297-.371-.435-.189c-1.932-.838-3.939-1.772-6.033-2.747-9.931-4.624-21.84-10.169-37.264-10.779-18.775-.743-42.551 5.776-74.691 29.086l-2.023 1.467 1.946 1.567c15.926 12.834 19.369 29.858 18.633 44.308-.561 11.029-3.549 20.411-5.235 25.101-1.161-1.697-1.901-3.83-2.457-6.335-.385-1.731-.665-3.556-.959-5.467l-.046-.302c-.307-1.994-.634-4.075-1.111-6.084-.951-4.011-2.56-8.02-6.132-10.859-3.579-2.845-8.796-4.254-16.393-3.83l-2.227.124.465 2.182 11.358 53.313.019.089.028.088c4.058 12.862 11.016 24.01 19.913 32.812a109.25 109.25 0 0 1 1.538 2.683 129.338 129.338 0 0 1 3.76 7.323c2.814 5.949 5.661 13.252 6.209 19.216.556 6.052-.965 13.86-2.707 20.31a129.763 129.763 0 0 1-2.842 9.137c-5.032-2.405-9.527-2.226-13.379.016-4.164 2.424-7.213 7.06-9.483 12.216-4.148 9.421-6.143 21.639-7.064 29.221-24.87-5.704-44.074-11.495-57.14-15.895-6.714-2.261-11.807-4.154-15.216-5.48a190.79 190.79 0 0 1-4.398-1.77 79.154 79.154 0 0 1-.618-1.638 126.31 126.31 0 0 1-2.234-6.74c-1.758-5.812-3.868-14.099-5.276-23.977-2.817-19.777-2.796-45.806 8.397-71.118 1.809-4.092 4.07-8.295 6.52-12.851 9.468-17.602 21.765-40.463 21.765-82.449 0-30.591 14.848-56.353 36.707-74.515 21.879-18.178 50.698-28.658 78.375-28.658 15.131 0 27.296 1.733 37.074 7.64 9.717 5.87 17.368 16.047 23.051 33.581.578 1.785 2.489 2.875 4.357 2.27 11.315-3.672 28.472.034 42.954 9.488 14.418 9.413 25.616 24.156 25.616 41.924 0 15.426-2.642 25.85-5.218 36.001-3.119 12.289-6.131 24.159-4.006 43.498.709 6.449 2.151 11.023 4.166 14.815 1.982 3.731 4.481 6.619 7.114 9.664l.06.069c6.274 7.252 9.129 13.218 10.05 18.466.92 5.235-.043 9.983-1.832 14.91-.9 2.475-1.994 4.96-3.153 7.578l-.1.225c-1.121 2.533-2.296 5.185-3.351 7.976-2.183 5.771-3.886 12.207-3.717 19.835.144 6.475 1.292 10.913 3.009 14.271 1.697 3.32 3.888 5.443 5.8 7.295l.051.049c1.743 1.689 3.193 3.111 4.266 5.104.959 1.781 1.67 4.132 1.789 7.662-24.009 14.279-47.772 20.181-65.616 22.502-9.036 1.176-16.544 1.432-21.783 1.395-2.619-.019-4.669-.11-6.058-.197Z" fill="#131313" stroke="#000" stroke-width="3.822"/><path d="M321.866 379.863H48.956l.104-.212c4.545-9.256 12.93-26.332 23.843-41.61 6.193-8.671 13.127-16.654 20.539-22.269 7.412-5.616 15.119-8.732 22.95-8.046 15.054 1.317 28.463 9.559 41.925 17.834 1.275.784 2.551 1.569 3.829 2.348 14.485 8.827 29.359 17.023 45.719 13.437 5.534-1.214 9.264-3.81 11.611-7.165 2.314-3.307 3.146-7.151 3.29-10.663.144-3.518-.395-6.843-.955-9.261a40.014 40.014 0 0 0-.747-2.772c3.625-3.649 7.463-5.774 11.425-6.731 4.295-1.037 8.887-.737 13.718.692 9.73 2.878 20.14 10.252 30.3 19.734 18.614 17.373 35.693 41.144 45.359 54.684Z" fill="#98B4D4" stroke="#000" stroke-width="4.274"/></g><defs><clipPath id="b"><path fill="#fff" transform="translate(90.5 43)" d="M0 0h200v320H0z"/></clipPath></defs></svg>